<?xml version="1.0" encoding="utf-8"?>
<!-- Generator: Adobe Illustrator 23.0.2, SVG Export Plug-In . SVG Version: 6.00 Build 0)  -->
<svg version="1.1" id="Layer_1" xmlns="http://www.w3.org/2000/svg" xmlns:xlink="http://www.w3.org/1999/xlink" x="0px" y="0px"
	 viewBox="0 0 795 369" style="enable-background:new 0 0 795 369;" xml:space="preserve">
<style type="text/css">
	.st0{fill:#1C1C1C;}
</style>
<path class="st0" d="M357.8,85.8c0-14.4,14.8-18.6,28.4-19.1C412,65.6,428,84.2,428,84.2h0.3V73.9c0,0-20.5-9.5-42.2-9.5
	c-12.4,0.2-35.6,5.1-35.6,26.5c0,43.8,73.5,11.2,73.5,40.8c0,16-22.1,18.3-28.7,18.3c-29.5,0-41.7-19.1-41.7-19.1c-0.3,0-0.6,0-1,0
	l0.8,13.3c0,0,25,7.9,40.6,7.9c32.1,0,39.5-21.2,39.5-27.1C433.5,80.3,357.8,112.4,357.8,85.8z M332.6,51.6l-21.3-7.4
	c-4.5-1.6-9.5,0-12.2,4l0,0L327,58C328.7,55.6,330.7,53.5,332.6,51.6z M305.8,109.2l-11.9-4.2l-13.2-4.7c-0.2,2.7,6.6,8.7,6.6,8.7
	s-6.9,6.1-6.7,8.7l13.2-4.7L305.8,109.2z M353.3,36.5L328,27.7c-5-1.8-10.7-0.6-14.6,3l0,0l31.1,10.9
	C347.3,39.7,350.2,38,353.3,36.5z M319.3,69.3l-19.7-6.9c-4.2-1.4-8.7,0.5-10.4,4.5l0,0l26.8,9.3C316.7,73.8,318,71.5,319.3,69.3z
	 M311.2,88.8l-19.6-6.7c-3.9-1.3-8.2,1-9,5l0,0l27,9.5C310.1,93.8,310.6,91.2,311.2,88.8z M390.7,27.4c5.8,0,11.4,0.6,16.7,1.8
	l40.3-14c0,0,0,0-0.2,0c-5.5-3.4-12.2-3.9-18.3-1.8L390,27.1l-38.8-13.5c-6.1-2.1-12.7-1.4-18.1,1.9l0,0l39.9,14
	C378.8,28.2,384.6,27.4,390.7,27.4z M465.4,75.8l26.8-9.3l0,0c-1.8-4-6.3-5.9-10.4-4.5l-19.9,6.9C463.2,71.2,464.3,73.4,465.4,75.8z
	 M454,57.6l27.9-9.8l0,0c-2.7-4-7.7-5.5-12.2-3.9l-21.3,7.4C450.3,53.2,452.3,55.3,454,57.6z M436.4,41.4l31.1-10.9l0,0
	c-3.9-3.7-9.5-4.8-14.6-3l-25.3,8.8C430.6,37.8,433.5,39.4,436.4,41.4z M418.9,2.8c-1.3-0.3-2.6-0.6-3.9-1c-7.1-1.6-14.3-1-21,1.4
	l-3.9,1.3l-3.4-1.1c-7.4-2.6-15.2-2.9-22.8-1c-0.8,0.2-1.4,0.3-2.2,0.6L390,13L418.9,2.8z M471.5,96.1l27-9.5l0,0
	c-0.8-4-5.1-6.4-9-5l-19.6,6.7C470.6,90.9,471,93.5,471.5,96.1z M326.6,160.6l-27.9,9.6l0,0c2.6,4,7.7,5.5,12,4l21.3-7.4
	C330.3,164.9,328.4,162.8,326.6,160.6z M462.1,149.5l19.7,6.9c4.2,1.4,8.7-0.5,10.4-4.5l0,0l-26.8-9.3
	C464.5,144.8,463.3,147.2,462.1,149.5z M428,182.2l25.2,8.8c5,1.8,10.7,0.6,14.4-3l0,0l-31.1-10.7C434,179,431.1,180.8,428,182.2z
	 M448.7,167.1l21.3,7.4c4.5,1.6,9.5,0,12.2-4l0,0l-27.9-9.8C452.6,163.1,450.7,165.2,448.7,167.1z M492.4,109.2c0,0,8.3-6.4,8-9.1
	l-14.3,5l-11.9,4.2l11.9,4.2l14.3,5C500.6,115.6,492.4,109.2,492.4,109.2z M469.9,129.9l19.6,6.7c3.9,1.3,8.2-1,9-5l0,0l-27-9.5
	C471.2,124.9,470.6,127.5,469.9,129.9z M309.6,121.9l-27,9.5l0,0c0.8,4,5.1,6.4,9,5l19.6-6.7C310.6,127,310,124.5,309.6,121.9z
	 M344,176.8l-31,10.7l0,0c3.9,3.7,9.5,4.8,14.4,3l25.2-8.8C349.8,180.4,346.9,178.7,344,176.8z M315.6,142.1l-26.8,9.3l0,0
	c1.6,4,6.3,5.9,10.4,4.5l19.7-6.9C317.7,146.9,316.5,144.5,315.6,142.1z M390.7,191.4c-6.3,0-12.4-0.8-18.3-2.1l-39.6,13.8h0.2
	c5.3,3.4,11.9,4,17.8,1.9l39.5-13.8L430,205c6.1,2.1,12.8,1.4,18.3-1.8h0.2l-39.9-14C402.5,190.7,396.6,191.4,390.7,191.4z
	 M361,215.4L361,215.4c8.7,2.4,17.6,2.1,26-0.8l3.2-1.1l2.9,1c8.5,3,17.8,3.4,26.5,1.1h0.2l-29.5-10.3L361,215.4z M794,274.3v93.5
	l-71.2-73.6v71.4H713v-93.5l71.2,73.5v-71.4h9.8V274.3z M634.7,272.5c-27.8,0-48.8,20.4-48.8,47.5s20.9,47.5,48.8,47.5
	c27.8,0,48.8-20.4,48.8-47.5C683.3,292.9,662.4,272.5,634.7,272.5z M634.7,359.3c-22.6,0-39.8-17-39.8-39.3
	c0-22.5,17-39.3,39.8-39.3c22.6,0,39.6,17,39.6,39.3C674.3,342.5,657.1,359.3,634.7,359.3z M500.9,274.3H566v8.2h-27.8v83.3h-9.8
	v-83.3h-27.8v-8.2H500.9z M65.3,342.8c0,15.1-12.2,24.7-31.1,24.7c-16,0-28.4-7.7-34.2-21.2l8.3-3.5c4.7,10.6,14,16.5,26,16.5
	c13.2,0,21.2-6.3,21.2-16.5c0-11.2-8.3-15.2-22.9-21.3c-15.4-6.4-26.3-12-26.3-26.2c0-13.3,11.7-22.9,27.9-22.9
	c11.7,0,20.7,4.8,26.6,14.1l-8,4.2c-4.2-7.1-10.1-10.3-18.6-10.3c-10.1,0-18,6.4-18,14.6c0,10.1,9.9,14.1,21.3,18.6
	C56.3,321.5,65.3,327.7,65.3,342.8z M167.5,274.3h9.8v91.4h-9.8V329h-58.1v36.7h-9.8v-91.4h9.8v46.5h57.9L167.5,274.3z M227.7,357.6
	h47v8.2h-56.8v-91.4h55.8v8.2h-46v38.3h40.9v8.2h-40.9L227.7,357.6L227.7,357.6z M353.9,327.2l24.2,38.3H367l-22.6-36.4l-0.3-0.3
	h-16.2l2.7-8.2H343c12,0,21-8.3,21-19.6c0-10.7-8.7-18.9-20.4-18.9h-23.7v83.3h-9.8V274h34c16.7,0,29.7,11.9,29.7,27
	c0,11.6-7.4,21.7-18.9,25.7L353.9,327.2z M444.7,272.1l-44.6,93.7h10.1l13-27.4h42.7l12.4,26.5l0.5,1.1h10.6L444.7,272.1z
	 M427.1,330l17.5-37.5l17.6,37.5H427.1z"/>
</svg>
